<svg id="Capa_1" data-name="Capa 1" xmlns="http://www.w3.org/2000/svg" xmlns:xlink="http://www.w3.org/1999/xlink" viewBox="0 0 1024.3 1022.3"><defs><style>.cls-1{fill:url(#linear-gradient);}.cls-2{fill:#fff;}</style><linearGradient id="linear-gradient" x1="-0.3" y1="511.01" x2="1024" y2="511.01" gradientUnits="userSpaceOnUse"><stop offset="0" stop-color="#518fca"/><stop offset="1" stop-color="#3e4a94"/></linearGradient></defs><title>Polis2-1</title><path class="cls-1" d="M1024,917.66a104.51,104.51,0,0,1-104.52,104.5H104.22A104.51,104.51,0,0,1-.3,917.66V104.35A104.52,104.52,0,0,1,104.22-.15H919.48A104.52,104.52,0,0,1,1024,104.35Z" transform="translate(0.3 0.15)"/><path class="cls-2" d="M511.86,162.68c-145.2,0-262.9,117.7-262.9,262.92V859.33l94-104.67V425A166.4,166.4,0,1,1,452.06,581.29V681.66a262.29,262.29,0,0,0,59.8,6.85c145.22,0,262.92-117.72,262.92-262.91S657.08,162.68,511.86,162.68Z" transform="translate(0.3 0.15)"/></svg>